HIERARCHY
ROOT Hips
{
  OFFSET -187.679 86.5976 -156.378
  CHANNELS 6 Xposition Yposition Zposition Zrotation Xrotation Yrotation
  JOINT LeftUpLeg
  {
    OFFSET 8.64259 1.95398 -2.38835
    CHANNELS 3 Zrotation Xrotation Yrotation
    JOINT LeftLeg
    {
      OFFSET 43.7702 0 0
      CHANNELS 3 Zrotation Xrotation Yrotation
      JOINT LeftFoot
      {
        OFFSET 40.6238 0 0
        CHANNELS 3 Zrotation Xrotation Yrotation
        JOINT LeftToeBase
        {
          OFFSET 12.7242 0 0
          CHANNELS 3 Zrotation Xrotation Yrotation
          End Site
          {
            OFFSET 0 0 0
          }
        }
      }
    }
  }
  JOINT RightUpLeg
  {
    OFFSET -8.2249 1.95398 -2.59336
    CHANNELS 3 Zrotation Xrotation Yrotation
    JOINT RightLeg
    {
      OFFSET 43.5653 0 0
      CHANNELS 3 Zrotation Xrotation Yrotation
      JOINT RightFoot
      {
        OFFSET 40.6238 0 0
        CHANNELS 3 Zrotation Xrotation Yrotation
        JOINT RightToeBase
        {
          OFFSET 12.7242 0 0
          CHANNELS 3 Zrotation Xrotation Yrotation
          End Site
          {
            OFFSET 0 0 0
          }
        }
      }
    }
  }
  JOINT Spine
  {
    OFFSET 0.165834 0.87714 6.61349
    CHANNELS 3 Zrotation Xrotation Yrotation
    JOINT Spine1
    {
      OFFSET 7.38963 1.71661e-005 0
      CHANNELS 3 Zrotation Xrotation Yrotation
      JOINT Spine2
      {
        OFFSET 11.9445 1.14441e-005 0
        CHANNELS 3 Zrotation Xrotation Yrotation
        JOINT Spine3
        {
          OFFSET 14.7254 4.19617e-005 0
          CHANNELS 3 Zrotation Xrotation Yrotation
          JOINT Spine4
          {
            OFFSET 10.9679 0 0
            CHANNELS 3 Zrotation Xrotation Yrotation
            JOINT RightShoulder
            {
              OFFSET 2.46616 -1.6653 3.69651
              CHANNELS 3 Zrotation Xrotation Yrotation
              JOINT RightArm
              {
                OFFSET 13.0012 0 0
                CHANNELS 3 Zrotation Xrotation Yrotation
                JOINT RightForeArm
                {
                  OFFSET 28.7848 1.52588e-005 0
                  CHANNELS 3 Zrotation Xrotation Yrotation
                  JOINT RightHand
                  {
                    OFFSET 26.5688 1.52588e-005 0
                    CHANNELS 3 Zrotation Xrotation Yrotation
                    End Site
                    {
                      OFFSET 0 0 0
                    }
                  }
                }
              }
            }
            JOINT LeftShoulder
            {
              OFFSET 2.38034 -1.29275 -3.7523
              CHANNELS 3 Zrotation Xrotation Yrotation
              JOINT LeftArm
              {
                OFFSET 16.3182 6.10352e-005 0
                CHANNELS 3 Zrotation Xrotation Yrotation
                JOINT LeftForeArm
                {
                  OFFSET 27.0901 0 0
                  CHANNELS 3 Zrotation Xrotation Yrotation
                  JOINT LeftHand
                  {
                    OFFSET 24.5451 1.52588e-005 0
                    CHANNELS 3 Zrotation Xrotation Yrotation
                    End Site
                    {
                      OFFSET 0 0 0
                    }
                  }
                }
              }
            }
            JOINT Neck
            {
              OFFSET 5.0226 -0.0266342 0
              CHANNELS 3 Zrotation Xrotation Yrotation
              JOINT Head
              {
                OFFSET 6.69363 2.86102e-005 0
                CHANNELS 3 Zrotation Xrotation Yrotation
                End Site
                {
                  OFFSET 0 0 0
                }
              }
            }
          }
        }
      }
    }
  }
}
MOTION
Frames:	10
Frame Time:	0.0416667
13.7279 101.885 19.4436 177.783 -80.6056 176.109 -174.392 -6.59235 89.2654 -17.6463 23.6366 8.58542 71.6112 5.47915 -1.64539 15.2225 -7.59236 4.49132 172.206 -8.09767 86.9164 -15.6197 6.09301 1.66154 67.8924 -3.38541 2.82325 26.3604 -1.4538 3.48434 0.0578258 7.93916 -89.8189 10.9949 0.199081 0.341436 -0.676045 0.213915 0.332332 -23.2108 0.0872537 0.385475 -3.19818 0.0872638 0.385478 86.0368 -49.0817 -106.921 26.395 -25.3958 -11.4515 -15.8419 -16.8314 -16.7382 -9.36469 -0.124653 -3.62426 -90.2132 -46.0213 77.7284 -24.5193 31.4751 -7.65899 9.17802 -2.52407 -16.2286 -1.58211 -0.0671721 -1.51648 3.13764 -2.31697 -4.04792 7.21348 -1.31046 3.29233 
13.7876 101.884 19.5192 178.242 -80.5497 176.548 -174.431 -6.8071 89.171 -17.4907 23.3665 8.59278 71.7992 5.5613 -1.68406 14.8371 -7.61511 4.16652 172.262 -8.01748 86.872 -15.9758 3.46722 1.31333 66.9253 -3.03943 2.02924 28.0099 -0.448309 1.13435 0.0746333 7.9387 -89.8251 10.996 0.229653 0.326071 -0.674987 0.243793 0.315634 -23.2099 0.121038 0.380012 -3.19723 0.121035 0.380002 86.029 -49.0559 -106.941 26.4127 -24.9373 -11.2702 -16.2419 -17.5325 -17.3325 -10.3624 -0.0844752 -4.2486 -90.3983 -46.2414 77.4932 -24.3262 30.9889 -8.04972 9.18006 -2.27043 -15.4016 -1.27767 -0.0671655 -1.71651 3.40618 -2.23172 -3.12245 6.60414 -1.51735 1.75813 
13.7719 101.884 19.5878 178.113 -80.6614 176.303 -174.497 -6.87367 89.0292 -17.3178 23.4993 8.62704 71.7342 5.58293 -1.49192 15.096 -7.62909 4.44512 172.205 -7.83559 86.753 -16.1905 3.8862 1.32679 67.2005 -3.11474 2.32546 27.7979 -0.552397 1.3603 0.0596968 7.92883 -89.8323 11.0158 0.196597 0.314905 -0.655125 0.210266 0.305933 -23.19 0.0928628 0.359429 -3.17736 0.0928623 0.359424 86.1024 -48.7536 -106.922 26.6529 -24.6974 -11.2378 -16.3249 -17.9715 -17.3576 -11.3156 -0.174879 -3.31078 -90.4412 -46.5045 77.4895 -24.2034 31.0695 -7.97582 9.21541 -2.51779 -15.686 -1.52325 -0.0671646 -1.74357 3.59171 -2.13196 -2.87238 6.38992 -1.45856 1.7733 
13.7788 101.885 19.6676 177.237 -80.7191 175.36 -174.554 -6.88559 88.9506 -17.2624 23.4892 8.67314 71.7753 5.56989 -1.59869 15.076 -7.64808 4.46366 172.16 -7.93814 86.705 -15.9584 3.79505 1.33992 67.2009 -3.12779 1.91862 27.9858 -0.613657 1.67483 0.0388775 7.93586 -89.8452 11.0019 0.149146 0.293729 -0.66911 0.161923 0.286877 -23.204 0.053972 0.324975 -3.19136 0.0539626 0.324964 86.3122 -48.4071 -106.707 26.7669 -24.8995 -11.4064 -16.203 -17.872 -17.1679 -10.5355 -0.086902 -4.22351 -90.454 -46.8431 77.5504 -23.8708 31.089 -8.12807 9.24068 -2.38372 -15.9322 -1.50889 -0.0671786 -1.29158 3.73648 -2.075 -2.52613 6.63756 -1.46917 1.59173 
13.7831 101.881 19.6922 178.373 -80.9053 176.456 -174.747 -6.8695 88.7452 -17.0394 22.9993 8.80064 71.764 5.51733 -1.75897 14.951 -7.7022 4.45297 172.106 -7.67549 86.6186 -16.1092 3.58855 1.35359 67.1478 -3.1213 2.19243 27.9791 -0.498103 1.27824 0.0525592 7.92423 -89.8331 11.025 0.182032 0.3146 -0.645945 0.195703 0.30627 -23.1808 0.0790641 0.35476 -3.16818 0.0790696 0.354758 86.1829 -48.6389 -106.834 26.5751 -24.9697 -11.357 -16.3835 -18.4669 -17.4091 -10.7565 -0.157696 -3.42878 -90.2767 -46.5958 77.7661 -24.2606 30.5828 -8.2306 9.33844 -2.17738 -15.7924 -1.50851 -0.0671698 -1.58987 4.11659 -2.18034 -2.6788 6.01752 -1.55572 1.46076 
13.7146 101.856 19.7386 -179.89 -80.9657 178.111 -174.697 -6.91367 88.7214 -16.9545 23.0234 8.68528 71.7591 5.52861 -1.71048 15.1035 -7.8013 4.80185 172.194 -7.62287 86.6198 -16.038 3.38924 1.20612 67.1872 -3.14421 2.17993 28.1085 -0.522191 1.43454 0.0795798 7.93189 -89.8171 11.0096 0.243228 0.340681 -0.661399 0.257985 0.329639 -23.1963 0.129589 0.398033 -3.18362 0.129591 0.398029 85.9852 -48.8817 -107.062 26.5936 -24.5467 -11.4134 -16.8613 -19.7111 -17.7821 -10.2953 -0.114092 -3.8732 -90.3063 -46.5787 77.7161 -24.1243 30.9141 -8.26483 9.33538 -2.06108 -15.7609 -1.3195 -0.0629506 -1.13489 3.97004 -2.18863 -3.09852 6.59238 -1.43782 2.06126 
13.5639 101.862 19.8296 179.976 -80.999 178.097 -174.508 -6.87628 89.0451 -16.9743 23.1917 8.59885 71.7409 5.51971 -1.73268 15.2348 -7.80977 4.9479 172.295 -7.73169 86.8532 -15.9822 3.45605 1.26328 67.2945 -3.15088 1.7639 27.8767 -0.74432 2.05276 0.0757173 7.92334 -89.8248 11.0268 0.231979 0.326448 -0.644175 0.246121 0.315918 -23.1791 0.123138 0.381071 -3.16642 0.123143 0.381075 85.9832 -49.0545 -107.012 26.4946 -24.7774 -11.2431 -16.8998 -19.556 -18.0277 -9.99322 -0.128086 -3.67883 -90.3127 -46.4697 77.6804 -24.3852 30.7033 -8.01174 9.3357 -2.18362 -15.6712 -1.28655 -0.0594261 -1.27283 3.64415 -2.18346 -3.76428 6.77823 -1.26063 2.83016 
13.3769 101.867 19.878 179.397 -81.1768 177.566 -174.269 -6.61887 89.3753 -17.0406 23.5158 8.38643 71.7207 5.48999 -1.80242 15.46 -7.72217 4.98857 172.587 -7.65511 87.1916 -15.932 3.78933 1.15369 67.3312 -3.13356 1.67863 27.9073 -0.673297 1.83193 0.0704484 7.9173 -89.8302 11.0389 0.219014 0.316861 -0.632105 0.232743 0.30691 -23.167 0.113653 0.368034 -3.15436 0.11365 0.368025 85.8765 -49.2365 -107.118 26.3034 -24.8144 -11.1212 -16.816 -19.1584 -18.0557 -10.5842 -0.1469 -3.52524 -90.2586 -46.2431 77.7105 -24.669 30.6546 -8.08995 9.26281 -2.28361 -15.4706 -1.29859 -0.0557465 -1.5457 3.67868 -2.24339 -3.60902 6.51337 -1.39145 2.33905 
13.1485 101.846 20.1088 177.579 -81.0999 175.91 -173.913 -6.62399 89.888 -17.3374 24.3665 8.2883 71.7845 5.65335 -1.2997 15.6646 -7.44117 4.61094 172.684 -8.04689 87.4726 -15.7486 4.44811 1.31409 67.1257 -3.08004 2.26646 28.7555 -0.2863 0.987941 0.0440882 7.92722 -89.8686 11.0192 0.14872 0.247202 -0.651764 0.159456 0.240422 -23.1868 0.0675401 0.280464 -3.17411 0.0675465 0.280471 85.9543 -48.9882 -107.076 26.6755 -24.5277 -11.0601 -16.8493 -19.3881 -17.8867 -10.7972 -0.157357 -3.43855 -90.3007 -46.639 77.7393 -24.1909 31.237 -7.82045 9.31529 -2.19175 -16.0747 -1.22664 -0.0534359 -1.07814 3.6028 -2.19402 -3.49801 6.55161 -1.34253 2.60063 
12.9758 101.831 20.2045 177.729 -81.2899 175.898 -173.966 -6.61577 89.8284 -17.0843 24.1932 8.26749 71.8702 5.59205 -1.68237 15.5498 -7.64204 4.91257 172.772 -7.87882 87.5325 -15.8205 4.04598 1.17642 67.4299 -3.16072 1.57954 27.7764 -0.630147 1.6117 0.0465093 7.8997 -89.8356 11.0742 0.168894 0.310922 -0.596794 0.182421 0.30318 -23.1317 0.0676431 0.34731 -3.11903 0.0676383 0.3473 85.6524 -49.3435 -107.425 26.406 -24.6141 -10.8181 -16.5482 -18.3952 -17.6666 -11.2777 -0.168259 -3.39779 -90.1131 -46.1674 77.9188 -24.7939 30.8722 -7.81846 9.35727 -1.81369 -15.8032 -1.10675 -0.0556538 -1.35867 3.32774 -2.20927 -3.89141 6.56808 -1.26993 2.96541 
